Coordinates
version=1
nRows=24
nColumns=38
inDegrees=no

Units are S.I. units (second, meters, Newtons, ...)
If the header above contains a line with 'inDegrees', this indicates whether rotational values are in degrees (yes) or radians (no).

endheader
time	pelvis_tilt	pelvis_list	pelvis_rotation	pelvis_tx	pelvis_ty	pelvis_tz	hip_flexion_r	hip_adduction_r	hip_rotation_r	knee_angle_r	ankle_angle_r	subtalar_angle_r	mtp_angle_r	hip_flexion_l	hip_adduction_l	hip_rotation_l	knee_angle_l	ankle_angle_l	subtalar_angle_l	mtp_angle_l	lumbar_extension	lumbar_bending	lumbar_rotation	arm_flex_r	arm_add_r	arm_rot_r	elbow_flex_r	pro_sup_r	wrist_flex_r	wrist_dev_r	arm_flex_l	arm_add_l	arm_rot_l	elbow_flex_l	pro_sup_l	wrist_flex_l	wrist_dev_l
10	1.71625	1.32746	0.00292803	0.615041	1.94824	0.917829	0.37233	0.145526	-0.0708518	0.841091	-0.27529	0	0	0.504931	-0.274059	0.0101258	0.83981	-0.231387	0	0	-0.715654	-0.180664	-0.102209	0.554648	-0.250488	-0.0549239	2.09617	1.5708	0	0	0.533129	-0.608279	0.329578	0.609212	1.5708	0	0
10.01	1.67605	1.33027	0.0443425	0.614721	1.94825	0.917578	0.378779	0.143091	-0.0683573	0.860448	-0.274172	0	0	0.512292	-0.27008	0.00900131	0.834804	-0.232428	0	0	-0.693367	-0.176144	-0.0882542	0.539511	-0.256996	-0.058707	2.09438	1.5708	0	0	0.67739	-0.696759	1.00503	0.554061	1.15563	0	0
10.02	1.68361	1.3348	0.0402859	0.614542	1.94757	0.918056	0.372583	0.139286	-0.0673611	0.878575	-0.27314	0	0	0.508104	-0.264921	0.0064192	0.829033	-0.234859	0	0	-0.686157	-0.174003	-0.0812494	0.532771	-0.260771	-0.0599031	2.08988	1.5708	0	0	0.668161	-0.692474	1.03522	0.537791	1.13274	0	0
10.03	1.71117	1.34007	0.0181781	0.614294	1.94648	0.919026	0.360789	0.134567	-0.0675302	0.894234	-0.27248	0	0	0.499086	-0.257882	0.00596702	0.821333	-0.238869	0	0	-0.685301	-0.171378	-0.0751363	0.528345	-0.26497	-0.0615833	2.0861	1.5708	0	0	0.661621	-0.688794	1.06543	0.523445	1.10983	0	0
10.04	1.72474	1.34413	0.0089225	0.614106	1.94572	0.91958	0.352006	0.131326	-0.0669982	0.909233	-0.272285	0	0	0.493978	-0.252752	0.00460423	0.815475	-0.241571	0	0	-0.679532	-0.168774	-0.0674462	0.520919	-0.269899	-0.0639347	2.08271	1.5708	0	0	0.652924	-0.684055	1.0933	0.50826	1.08841	0	0
10.05	1.73893	1.34779	-0.00106106	0.613963	1.94496	0.920089	0.342539	0.128922	-0.0661459	0.922926	-0.272488	0	0	0.488929	-0.248347	0.00297349	0.809887	-0.243942	0	0	-0.67355	-0.166104	-0.0593951	0.513311	-0.274713	-0.0669537	2.0792	1.5708	0	0	0.643546	-0.679332	1.11839	0.493366	1.06895	0	0
10.06	1.75522	1.35134	-0.0130272	0.613827	1.94414	0.920579	0.332096	0.126936	-0.065367	0.93538	-0.27291	0	0	0.483566	-0.243792	0.00166335	0.80445	-0.24602	0	0	-0.667945	-0.163346	-0.051178	0.505631	-0.279704	-0.0701298	2.0759	1.5708	0	0	0.633603	-0.674422	1.13965	0.478576	1.05209	0	0
10.07	1.77098	1.3551	-0.024698	0.6138	1.94329	0.921039	0.320825	0.125641	-0.0637318	0.945601	-0.272958	0	0	0.478479	-0.239142	0.000472241	0.799204	-0.247868	0	0	-0.662075	-0.161108	-0.0431007	0.497874	-0.284881	-0.0730786	2.07254	1.5708	0	0	0.621986	-0.67004	1.15287	0.464794	1.04041	0	0
10.08	1.78151	1.35875	-0.0326275	0.613933	1.94252	0.921377	0.310274	0.125237	-0.0603441	0.953575	-0.273466	0	0	0.474507	-0.235522	-0.00204176	0.794614	-0.249726	0	0	-0.654422	-0.159729	-0.033643	0.48908	-0.290201	-0.0765118	2.06936	1.5708	0	0	0.609642	-0.665867	1.16294	0.451715	1.02983	0	0
10.09	1.79434	1.36229	-0.042624	0.614058	1.94169	0.921699	0.299593	0.124979	-0.0566484	0.961524	-0.274318	0	0	0.470328	-0.231685	-0.00415878	0.790175	-0.251265	0	0	-0.64722	-0.158129	-0.0241107	0.480405	-0.295482	-0.0803785	2.06628	1.5708	0	0	0.59644	-0.662092	1.16682	0.440018	1.02215	0	0
10.1	1.80995	1.36576	-0.0552926	0.61417	1.9408	0.922016	0.288731	0.124914	-0.0521576	0.969251	-0.276527	0	0	0.465772	-0.22761	-0.00564989	0.785898	-0.252612	0	0	-0.640549	-0.156418	-0.0143507	0.471861	-0.301073	-0.0847186	2.06336	1.5708	0	0	0.583279	-0.658594	1.16757	0.429202	1.01525	0	0
10.11	1.82768	1.36936	-0.0702887	0.614357	1.93985	0.922327	0.277745	0.125252	-0.0466777	0.976496	-0.279668	0	0	0.460939	-0.223401	-0.00694793	0.781712	-0.25416	0	0	-0.634327	-0.15508	-0.00439776	0.463399	-0.307259	-0.0888724	2.06083	1.5708	0	0	0.570401	-0.65592	1.16585	0.419866	1.0104	0	0
10.12	1.84398	1.37269	-0.0840058	0.614552	1.93883	0.922569	0.266364	0.126352	-0.0408349	0.981432	-0.282253	0	0	0.456843	-0.219963	-0.0100046	0.777685	-0.256324	0	0	-0.627751	-0.153428	0.00587052	0.454855	-0.313427	-0.0931217	2.05856	1.5708	0	0	0.557471	-0.653259	1.16095	0.410768	1.00884	0	0
10.13	1.85877	1.37601	-0.0964067	0.614769	1.93774	0.922785	0.254906	0.127593	-0.0344988	0.984168	-0.284869	0	0	0.453163	-0.216264	-0.0125449	0.773419	-0.25867	0	0	-0.620852	-0.151893	0.0162849	0.446057	-0.319674	-0.0975207	2.05636	1.5708	0	0	0.545022	-0.650679	1.15392	0.40152	1.01298	0	0
10.14	1.8763	1.37933	-0.111215	0.615007	1.93662	0.922998	0.242851	0.128625	-0.0288127	0.985496	-0.287557	0	0	0.449165	-0.212189	-0.0137407	0.769403	-0.260462	0	0	-0.614039	-0.150412	0.0261423	0.437361	-0.325268	-0.101477	2.05351	1.5708	0	0	0.5328	-0.648809	1.14479	0.392774	1.02346	0	0
10.15	1.89853	1.38302	-0.13029	0.615373	1.93547	0.923187	0.230023	0.129189	-0.0237458	0.986252	-0.290119	0	0	0.444714	-0.20774	-0.0144835	0.76575	-0.26261	0	0	-0.608068	-0.149286	0.0357602	0.428559	-0.329424	-0.106603	2.05083	1.5708	0	0	0.520941	-0.647041	1.1302	0.384056	1.04231	0	0
10.16	1.92123	1.38665	-0.150207	0.615748	1.93427	0.923359	0.216929	0.12985	-0.0184295	0.985721	-0.291432	0	0	0.440304	-0.203323	-0.0153891	0.762209	-0.264675	0	0	-0.601548	-0.148438	0.0446589	0.421296	-0.334647	-0.109804	2.0471	1.5708	0	0	0.507141	-0.645115	1.10567	0.374711	1.06941	0	0
10.17	1.94416	1.39002	-0.170702	0.616074	1.93309	0.923526	0.203424	0.130595	-0.0128936	0.983411	-0.292597	0	0	0.435796	-0.19896	-0.0169181	0.758673	-0.266308	0	0	-0.595092	-0.147191	0.0523764	0.415103	-0.339239	-0.111055	2.04235	1.5708	0	0	0.474372	-0.630958	0.954321	0.355723	1.20992	0	0
10.18	1.97435	1.39308	-0.19848	0.616395	1.93183	0.923719	0.188357	0.131205	-0.00798444	0.979823	-0.292934	0	0	0.430314	-0.194603	-0.018546	0.755231	-0.267661	0	0	-0.589213	-0.145949	0.0608989	0.408932	-0.34428	-0.112751	2.03695	1.5708	0	0	0.461314	-0.628832	0.926861	0.346353	1.23786	0	0
10.19	2.00255	1.39687	-0.223843	0.616701	1.9304	0.923821	0.174509	0.130409	-0.00416859	0.97529	-0.293666	0	0	0.425945	-0.188911	-0.0181709	0.751298	-0.270122	0	0	-0.583188	-0.144649	0.0675309	0.404166	-0.348248	-0.113129	2.0313	1.5708	0	0	0.432483	-0.607756	0.742043	0.322336	1.40931	0	0
10.2	2.02887	1.40058	-0.247595	0.617029	1.92892	0.923825	0.161116	0.129442	-0.000650095	0.968907	-0.295505	0	0	0.422153	-0.183291	-0.0181114	0.747863	-0.271712	0	0	-0.5765	-0.143031	0.0743411	0.399666	-0.351717	-0.113194	2.0257	1.5708	0	0	0.411352	-0.584346	0.555404	0.296155	1.5708	0	0
10.21	2.0509	1.40435	-0.267407	0.617456	1.92742	0.923723	0.148972	0.128316	0.00269344	0.96126	-0.296877	0	0	0.41927	-0.178024	-0.0186156	0.745039	-0.272063	0	0	-0.569511	-0.141818	0.0801576	0.395657	-0.353992	-0.112575	2.02059	1.5708	0	0	0.398592	-0.586832	0.5392	0.292334	1.5708	0	0
10.22	2.07505	1.40794	-0.289484	0.617891	1.92583	0.923632	0.136319	0.126797	0.00492167	0.951883	-0.297346	0	0	0.416101	-0.172561	-0.0188853	0.741792	-0.27295	0	0	-0.562823	-0.140395	0.0851069	0.392842	-0.356341	-0.11077	2.01416	1.5708	0	0	0.384744	-0.590177	0.522027	0.289823	1.5708	0	0
10.23	2.1164	1.41157	-0.328791	0.618506	1.924	0.923665	0.121157	0.124382	0.00636951	0.941627	-0.293695	0	0	0.410524	-0.166572	-0.0204584	0.738106	-0.274273	0	0	-0.557645	-0.139799	0.0885879	0.393553	-0.358223	-0.105806	2.00509	1.5708	0	0	0.371004	-0.594776	0.508308	0.287453	1.5708	0	0
